<svg width="23" height="27" viewBox="0 0 23 27" fill="none" xmlns="http://www.w3.org/2000/svg">
<rect x="1" y="12" width="21" height="14" rx="2" stroke="#AAAAAA" stroke-width="2"/>
<path d="M11.5 1C13.598 1 15.453 1.76102 16.7861 3.16113C18.1191 4.56115 19 6.67504 19 9.5C19 10.5711 18.9905 11.083 18.9053 11.3838C18.891 11.4342 18.8775 11.46 18.8711 11.4717C18.8527 11.4819 18.8052 11.5035 18.708 11.5264C18.3295 11.6153 17.6777 11.6261 16.4404 11.5938C15.2571 11.5628 13.6422 11.5 11.5 11.5C9.33401 11.5 7.79809 11.5313 6.59277 11.5234C5.37575 11.5155 4.71939 11.4637 4.34473 11.3535C4.18091 11.3053 4.13766 11.2635 4.13574 11.2617C4.134 11.2601 4.13155 11.2567 4.12598 11.2471C4.11938 11.2356 4.10577 11.2093 4.09082 11.1592C4.01017 10.8884 4 10.4435 4 9.5C4 6.67504 4.88094 4.56115 6.21387 3.16113C7.54697 1.76102 9.40195 1 11.5 1Z" stroke="#AAAAAA" stroke-width="2"/>
</svg>
